<svg width="200px" height="200px" viewBox="0 0 4 4" version="1.1" xmlns="http://www.w3.org/2000/svg" xmlns:xlink="http://www.w3.org/1999/xlink"><path fill="#444" d="M0 1.25h0.75v0.25H0z"/><path fill="#444" d="M1.25 0h0.25v0.75H1.25z"/><path fill="#444" d="M1.5 2.75H1.25V2.125l0.25 0.25z"/><path fill="#444" d="M2.75 1.5H2.375l-0.25 -0.25H2.75z"/><path fill="#444" d="m0.783 1.79 0.177 0.177 -0.743 0.743 -0.177 -0.177z"/><path fill="#444" d="m2.533 0.04 0.177 0.177 -0.743 0.743 -0.177 -0.177z"/><path fill="#444" d="m0.209 0.05 0.866 0.866 -0.177 0.177L0.032 0.227z"/><path fill="#444" d="M1.525 1.025 1 1.525l2.45 2.475 0.55 -0.525zm0 0.35L2.125 2l-0.15 0.15 -0.625 -0.625z"/></svg>